<?xml version="1.0" encoding="iso-8859-1"?>
<!-- Generator: Adobe Illustrator 21.0.0, SVG Export Plug-In . SVG Version: 6.00 Build 0)  -->
<svg xmlns="http://www.w3.org/2000/svg" xmlns:xlink="http://www.w3.org/1999/xlink" version="1.1" id="Capa_1" x="0px" y="0px" viewBox="0 0 512.021 512.021" style="enable-background:new 0 0 512.021 512.021;" xml:space="preserve" width="512" height="512">
<g>
	<path style="fill:#E8F6FC;" d="M345,370H15c-8.284,0-15-6.716-15-15V25.581C0,11.476,11.336,0,25.27,0h309.461   C348.664,0,360,11.476,360,25.581V355C360,363.284,353.284,370,345,370z"/>
	<path style="fill:#CEE2E9;" d="M334.731,0H180.329v370H345c8.284,0,15-6.716,15-15V25.581C360,11.476,348.664,0,334.731,0z"/>
	<path style="fill:#0095FF;" d="M387.541,402.541c-3.839,0-7.678-1.465-10.606-4.394l-46.639-46.639   c-5.858-5.857-5.858-15.355,0-21.213c5.857-5.857,15.355-5.857,21.213,0l46.639,46.639c5.858,5.857,5.858,15.355,0,21.213   C395.219,401.076,391.38,402.541,387.541,402.541z"/>
	<path style="fill:#0063E5;" d="M397.932,398.343c0.07-0.068,0.146-0.126,0.216-0.195c5.858-5.857,5.858-15.355,0-21.213   l-46.639-46.639c-5.857-5.857-15.355-5.857-21.213,0c-0.069,0.069-0.127,0.146-0.195,0.216L397.932,398.343z"/>
	<path style="fill:#00EED1;" d="M184,310H45c-8.284,0-15-6.716-15-15v-45c0-8.284,6.716-15,15-15h139c8.284,0,15,6.716,15,15v45   C199,303.284,192.284,310,184,310z"/>
	<path style="fill:#00EED1;" d="M248.5,205H45c-8.284,0-15-6.716-15-15v-45c0-8.284,6.716-15,15-15h203.5c8.284,0,15,6.716,15,15v45   C263.5,198.284,256.784,205,248.5,205z"/>
	<path style="fill:#00CCB3;" d="M248.829,130h-68.5v75h68.5c8.284,0,15-6.716,15-15v-45C263.829,136.716,257.114,130,248.829,130z"/>
	<circle style="fill-rule:evenodd;clip-rule:evenodd;fill:#E8F6FC;" cx="262.5" cy="262.5" r="124.637"/>
	<path style="fill-rule:evenodd;clip-rule:evenodd;fill:#CEE2E9;" d="M350.423,350.834c22.676-22.571,36.713-53.813,36.713-88.334   c0-68.835-55.802-124.637-124.637-124.637c-34.522,0-65.764,14.038-88.334,36.713L350.423,350.834z"/>
	<path style="fill:#212CBB;" d="M262.5,402.137c-76.996,0-139.637-62.641-139.637-139.637S185.504,122.862,262.5,122.862   S402.137,185.504,402.137,262.5S339.496,402.137,262.5,402.137z M262.5,152.862c-60.454,0-109.637,49.184-109.637,109.638   S202.046,372.137,262.5,372.137S372.137,322.954,372.137,262.5S322.954,152.862,262.5,152.862z"/>
	<path style="fill:#00EED1;" d="M295.678,305.818h-56.787c-6.665,0-12.43-4.638-13.857-11.149l-12.166-55.495   c-0.044-0.187-0.086-0.375-0.123-0.564l-2.683-12.238h-2.807c-7.835,0-14.186-6.352-14.186-14.186   c0-7.835,6.351-14.186,14.186-14.186h14.22c6.665,0,12.43,4.639,13.857,11.149l2.741,12.505l82.67-0.01   c4.813-0.001,9.297,2.438,11.911,6.479c2.615,4.04,3.003,9.131,1.031,13.52l-25.067,55.802   C306.33,302.541,301.264,305.818,295.678,305.818z"/>
	<path style="fill:#212CBB;" d="M334.731,0H25.27C11.336,0,0,11.476,0,25.581V81h360V25.581C360,11.476,348.664,0,334.731,0z"/>
	<path style="fill:#00215A;" d="M334.731,0H180.333v81H360V25.581C360,11.476,348.664,0,334.731,0z"/>
	<path style="fill-rule:evenodd;clip-rule:evenodd;fill:#00EED1;" d="M243.843,337.469c7.814,0,14.186-6.373,14.186-14.187   c0-7.814-6.373-14.186-14.186-14.186c-7.813,0-14.186,6.372-14.186,14.186C229.657,331.096,236.03,337.469,243.843,337.469z"/>
	<path style="fill:#A50043;" d="M319.05,50.975c5.776,0,10.488-4.711,10.488-10.488c0-5.776-4.711-10.488-10.488-10.488   c-5.777,0-10.488,4.711-10.488,10.488C308.562,46.264,313.274,50.975,319.05,50.975z"/>
	<path style="fill:#00CCB3;" d="M277.1,50.975c5.776,0,10.488-4.711,10.488-10.488c0-5.776-4.711-10.488-10.488-10.488   c-5.777,0-10.488,4.711-10.488,10.488C266.612,46.264,271.323,50.975,277.1,50.975z"/>
	<path style="fill:#EBB100;" d="M235.15,50.975c5.776,0,10.488-4.711,10.488-10.488c0-5.776-4.712-10.488-10.488-10.488   c-5.777,0-10.488,4.711-10.488,10.488C224.662,46.264,229.373,50.975,235.15,50.975z"/>
	<path style="fill:#F90053;" d="M459.046,512.021c-13.572,0-27.145-5.167-37.477-15.499l-41.76-41.761   c-9.98-9.98-15.478-23.29-15.478-37.476c0-14.188,5.497-27.496,15.478-37.477l0,0l0,0c9.979-9.98,23.29-15.478,37.476-15.478   c0.001,0,0,0,0.001,0c14.186,0,27.495,5.497,37.476,15.478l41.761,41.76c20.665,20.665,20.665,54.289,0,74.953   C486.191,506.854,472.618,512.021,459.046,512.021z M390.416,390.416h0.01H390.416z"/>
	<path style="fill-rule:evenodd;clip-rule:evenodd;fill:#00EED1;" d="M289.143,337.469c7.814,0,14.186-6.373,14.186-14.187   c0-7.814-6.373-14.186-14.186-14.186c-7.813,0-14.186,6.372-14.186,14.186C274.957,331.096,281.33,337.469,289.143,337.469z"/>
	<path style="fill:#A50043;" d="M496.312,496.723c0.069-0.068,0.142-0.131,0.21-0.2c20.665-20.664,20.665-54.288,0-74.953   l-41.761-41.76c-9.98-9.98-23.29-15.478-37.476-15.478c-0.001,0,0,0-0.001,0c-14.186,0-27.496,5.497-37.476,15.478   c-0.069,0.069-0.132,0.141-0.2,0.21L496.312,496.723z"/>
	<path style="fill:#00215A;" d="M184.808,185.219c19.869-19.974,47.36-32.357,77.692-32.357   c60.454,0,109.637,49.184,109.637,109.638c0,30.331-12.383,57.823-32.356,77.692l21.203,21.203   c25.405-25.301,41.153-60.292,41.153-98.895c0-76.996-62.641-139.638-139.637-139.638c-38.602,0-73.594,15.748-98.895,41.153   L184.808,185.219z"/>
	<path style="fill:#00CCB3;" d="M303.227,303.637c2.321-1.46,4.221-3.586,5.392-6.192l25.067-55.802   c1.972-4.39,1.584-9.481-1.031-13.52c-2.615-4.041-7.099-6.48-11.912-6.479l-82.67,0.01l-2.741-12.505   c-1.428-6.509-7.193-11.149-13.858-11.149h-14.219c-2.759,0-5.325,0.8-7.503,2.163L303.227,303.637z"/>
</g>















</svg>
